<svg width="1060" height="512" viewBox="0 0 1060 512" fill="none" xmlns="http://www.w3.org/2000/svg">
<g clip-path="url(#clip0_237_240)">
<path d="M26.4118 368.2V234.133H4.01583V204.478H26.4118V188.878C26.4118 156.906 41.5484 142.078 77.073 142.078C84.6413 142.078 92.8274 142.696 97.6156 143.622V170.498C94.5265 170.034 90.2017 169.725 86.0314 169.725C71.0493 169.725 64.0988 176.676 64.0988 189.959V204.478H96.9977V234.133H64.8711V368.2H26.4118ZM120.246 368.2V145.321H158.706V368.2H120.246ZM260.263 371.444C211.146 371.444 181.491 338.854 181.491 286.802V286.648C181.491 235.06 211.61 201.08 258.409 201.08C305.209 201.08 334.247 233.979 334.247 283.404V295.761H219.641C220.259 324.489 236.013 341.479 261.035 341.479C280.188 341.479 292.698 331.285 296.405 320.319L296.714 319.238H332.702L332.239 320.937C327.142 346.113 303.047 371.444 260.263 371.444ZM258.873 231.198C238.485 231.198 223.194 244.945 220.105 270.121H296.869C294.088 244.173 279.261 231.198 258.873 231.198ZM427.927 371.444C378.81 371.444 349.155 338.854 349.155 286.802V286.648C349.155 235.06 379.273 201.08 426.073 201.08C472.873 201.08 501.911 233.979 501.911 283.404V295.761H387.305C387.923 324.489 403.677 341.479 428.699 341.479C447.852 341.479 460.362 331.285 464.069 320.319L464.378 319.238H500.366L499.903 320.937C494.806 346.113 470.711 371.444 427.927 371.444ZM426.537 231.198C406.149 231.198 390.858 244.945 387.769 270.121H464.533C461.752 244.173 446.925 231.198 426.537 231.198ZM584.47 371.444C550.181 371.444 533.963 357.543 533.963 323.871V234.133H510.795V204.478H533.963V162.929H573.04V204.478H603.468V234.133H573.04V320.628C573.04 336.691 580.145 341.788 594.201 341.788C597.908 341.788 600.842 341.325 603.468 341.17V370.053C598.989 370.671 592.193 371.444 584.47 371.444Z" fill="#0A0A0A"/>
<path fill-rule="evenodd" clip-rule="evenodd" d="M652.986 105.786H878.311V256H803.2V331.11H728.096V406.221H652.986V105.786ZM728.096 180.896V256H803.2V180.896H728.096Z" fill="#3B82F6"/>
<path d="M878.311 256H953.421V406.221H878.311V256Z" fill="#3B82F6"/>
</g>
<defs>
<clipPath id="clip0_237_240">
<rect width="1059.2" height="512" fill="white"/>
</clipPath>
</defs>
</svg>
