<svg width="512" height="512" viewBox="0 0 512 512" fill="none" xmlns="http://www.w3.org/2000/svg">
<g clip-path="url(#clip0_3327_2486)">
<path d="M0 119.75C0 53.614 53.614 0 119.75 0H392.25C458.386 0 512 53.614 512 119.75V392.25C512 458.386 458.386 512 392.25 512H119.75C53.614 512 0 458.386 0 392.25V119.75Z" fill="white"/>
<path d="M267.347 83.5809C270.428 82.9647 274.35 82.2364 276.03 81.9563C277.711 81.6762 284.378 81.3961 290.876 81.34C298.776 81.284 304.658 81.5641 308.804 82.1244C312.221 82.6286 316.983 83.4689 319.448 84.0291C321.913 84.6454 326.227 85.8779 328.972 86.8863C331.717 87.8387 336.759 89.9675 340.176 91.6482C343.594 93.2729 349.364 96.6342 353.062 99.0432C356.759 101.508 362.417 105.598 365.667 108.175C368.916 110.752 375.191 116.522 379.672 121.004C384.154 125.486 390.261 132.209 393.23 135.906C396.143 139.604 400.681 145.766 403.258 149.632C405.891 153.497 409.701 159.66 411.717 163.357C413.79 167.055 416.535 172.377 417.824 175.122C419.056 177.867 421.073 182.573 422.25 185.486C423.426 188.399 425.275 193.553 426.339 196.971C427.46 200.388 428.972 205.654 429.757 208.736C430.541 211.817 431.661 217.251 432.278 220.78C432.95 224.31 433.846 231.369 434.294 236.467C434.743 241.565 435.135 248.232 435.135 251.313C435.135 254.394 434.743 260.949 434.294 265.879C433.79 270.809 433.062 277.139 432.558 279.884C432.11 282.629 431.101 287.559 430.373 290.809C429.645 294.058 428.132 299.66 427.012 303.302C425.947 306.887 423.818 312.938 422.306 316.747C420.849 320.501 417.6 327.616 415.079 332.546C412.614 337.476 408.3 344.983 405.499 349.24C402.698 353.442 400.401 357.027 400.401 357.196C400.401 357.364 406.507 363.078 413.902 369.969C421.353 376.803 428.132 383.302 429.028 384.367C429.869 385.431 431.325 388.008 432.278 390.137C433.23 392.21 434.238 395.571 434.575 397.7C434.911 400.109 434.911 402.798 434.575 405.263C434.238 407.336 433.51 410.361 432.95 411.986C432.334 413.554 430.765 416.411 429.421 418.26C428.076 420.109 425.947 422.462 424.715 423.47C423.538 424.479 421.017 426.047 419.168 426.944C417.32 427.84 414.294 428.961 412.446 429.465C410.597 429.913 407.964 430.305 406.563 430.305C405.163 430.305 402.418 429.913 400.401 429.409C398.384 428.961 395.135 427.672 393.118 426.608C390.653 425.319 386.451 421.902 380.233 416.243C375.135 411.538 368.412 405.375 359.504 397.252L353.51 401.061C350.148 403.19 346.563 405.431 345.499 406.047C344.446 406.712 340.327 408.801 336.39 410.797L336.255 410.865C332.277 412.882 325.835 415.795 321.969 417.308C318.103 418.82 312.557 420.837 309.644 421.79C306.731 422.742 301.801 424.143 298.72 424.871C295.638 425.655 290.092 426.832 286.395 427.448C282.697 428.12 275.75 429.017 270.988 429.465C266.227 429.913 259.392 430.305 255.862 430.305C252.333 430.305 245.386 429.913 240.456 429.465C235.526 428.961 228.579 428.064 225.05 427.448C221.52 426.832 216.086 425.655 213.005 424.927C209.924 424.143 204.882 422.742 201.8 421.79C198.719 420.837 192.781 418.708 188.635 417.028C184.489 415.347 177.543 412.154 173.229 409.969C168.915 407.728 162.361 403.918 158.663 401.509C154.966 399.101 149.531 395.291 146.618 393.05C143.705 390.865 138.663 386.607 135.414 383.694C132.164 380.781 127.514 376.243 125.105 373.666C122.696 371.089 118.551 366.327 115.974 363.078C113.341 359.829 109.307 354.282 106.898 350.753C104.545 347.224 101.072 341.677 99.279 338.428C97.4863 335.179 94.5171 329.408 92.7804 325.543C91.0437 321.677 88.4106 315.235 86.954 311.257C85.4974 307.279 83.3686 300.221 82.1921 295.571C81.0156 290.977 79.503 284.03 78.8868 280.164C78.2145 276.299 77.4862 270.248 77.1501 266.719C76.87 263.19 76.5898 256.019 76.5898 250.753C76.5898 245.486 76.87 238.316 77.1501 234.786C77.4862 231.257 78.3826 224.814 79.1669 220.5C79.8952 216.187 81.2957 209.744 82.1921 206.215C83.0885 202.685 84.8252 196.803 86.0577 193.161C87.3462 189.576 89.363 184.142 90.6515 181.172C91.884 178.147 94.6291 172.433 96.702 168.399C98.7748 164.366 101.856 158.987 103.481 156.354C105.105 153.721 108.131 149.296 110.147 146.494C112.164 143.637 115.918 138.875 118.439 135.85C120.904 132.769 125.834 127.503 129.363 124.141C133.733 119.828 136.702 117.475 138.943 116.41C140.68 115.57 143.817 114.505 145.946 114.001C148.448 113.404 151.007 113.198 153.621 113.385C155.75 113.553 159.055 114.225 160.904 114.898C162.753 115.514 165.554 116.914 167.066 117.923C168.635 118.931 171.044 121.004 172.557 122.517C174.013 124.029 175.918 126.662 176.814 128.343C177.767 130.024 178.887 133.049 179.335 135.066C179.84 137.083 180.232 140.108 180.232 141.788C180.232 143.469 179.84 146.438 179.391 148.399C178.943 150.304 177.879 153.217 177.038 154.786C176.198 156.578 173.173 160.22 169.643 163.917C166.338 167.335 162.024 172.097 160.064 174.562C158.103 177.027 155.078 181.172 153.397 183.805C151.66 186.439 148.803 191.312 147.066 194.73C145.33 198.147 142.921 203.413 141.688 206.495C140.456 209.576 138.831 214.394 138.047 217.139C137.262 219.884 136.086 224.814 135.414 228.063C134.741 231.313 133.957 237.867 133.565 242.629C133.117 249.184 133.117 253.442 133.621 259.996C134.013 264.758 134.909 271.425 135.638 274.842C136.366 278.26 137.711 283.526 138.663 286.607C139.559 289.688 141.24 294.506 142.416 297.251C143.537 299.996 145.386 304.03 146.45 306.215C147.571 308.4 149.587 312.041 150.988 314.338C152.388 316.635 155.694 321.453 158.327 324.983C160.96 328.512 165.778 334.058 169.027 337.308C172.277 340.557 177.319 345.039 180.232 347.336C183.145 349.577 187.683 352.77 190.316 354.394C192.949 356.019 197.823 358.708 201.24 360.389C204.658 362.126 209.924 364.422 213.005 365.599C216.086 366.775 221.913 368.512 225.89 369.521C229.868 370.529 236.03 371.761 239.504 372.266C243.425 372.826 249.532 373.162 255.75 373.162C261.801 373.162 267.963 372.826 271.549 372.266C274.798 371.817 279.84 370.865 282.753 370.249C285.666 369.633 290.204 368.4 292.837 367.56C295.47 366.663 299.56 365.207 301.969 364.254C304.322 363.302 308.243 361.509 310.652 360.333C313.005 359.1 315.414 357.812 315.975 357.364C316.927 356.691 315.751 355.347 301.409 341.453C292.837 333.05 279.28 319.324 271.213 310.921C263.145 302.461 254.854 293.666 252.781 291.369C250.652 289.072 246.282 284.03 243.033 280.22C239.784 276.411 235.358 271.033 233.229 268.176C231.156 265.374 227.683 260.557 225.61 257.475C223.537 254.394 220.064 248.848 217.879 245.15C215.694 241.453 212.389 235.29 210.54 231.425C208.691 227.559 206.058 221.285 204.602 217.419C203.145 213.553 201.24 207.783 200.344 204.534C199.448 201.285 198.047 195.122 197.263 190.808C196.478 186.495 195.694 179.716 195.526 175.682C195.358 171.537 195.526 165.71 195.862 162.237C196.254 158.819 197.039 153.777 197.655 151.032C198.215 148.231 199.391 143.973 200.176 141.508C201.016 139.043 202.809 134.618 204.153 131.704C205.498 128.791 208.243 123.973 210.148 121.06C212.109 118.147 215.302 113.945 217.263 111.816C219.224 109.631 222.585 106.27 224.77 104.365C226.899 102.405 230.988 99.2673 233.733 97.4185C236.478 95.5698 241.521 92.7126 244.938 91.088C248.355 89.4633 253.509 87.3905 256.423 86.4381C259.336 85.4857 264.266 84.2532 267.347 83.5809Z" fill="#161616"/>
<path d="M277.991 139.38C280.176 138.875 282.529 138.371 283.313 138.259C284.098 138.091 287.627 137.979 291.157 137.923C294.686 137.923 299.896 138.203 302.641 138.651C305.386 139.043 309.196 139.996 311.045 140.724C312.893 141.508 316.031 143.021 318.047 144.141C320.064 145.262 324.266 148.063 327.403 150.416C330.597 152.769 335.751 157.251 338.944 160.388C342.081 163.581 346.395 168.287 348.524 170.92C350.653 173.553 354.182 178.427 356.423 181.845C358.72 185.262 361.913 190.64 363.65 193.89C365.331 197.139 367.852 202.517 369.196 205.934C370.541 209.352 372.501 214.842 373.454 218.259C374.406 221.677 375.751 227.167 376.367 230.584C377.207 234.786 377.656 240.108 377.824 247.391C378.048 253.834 377.88 260.22 377.487 263.638C377.151 266.719 376.199 272.265 375.471 275.963C374.686 279.66 372.894 286.103 371.493 290.249C370.093 294.394 367.459 300.837 365.667 304.534C363.874 308.232 361.409 312.714 358.104 317.812L349.7 309.52C345.05 304.926 334.518 294.394 326.227 286.047C317.935 277.755 307.571 267.111 303.257 262.517C298.888 257.867 292.725 251.089 289.476 247.391C286.227 243.694 281.913 238.54 279.896 235.907C277.823 233.273 274.406 228.512 272.277 225.262C270.148 222.013 267.291 217.475 265.946 215.178C264.602 212.881 262.417 208.68 261.128 205.934C259.84 203.189 257.879 198.259 256.759 195.01C255.638 191.761 254.182 186.663 253.621 183.637C252.893 180.164 252.501 175.962 252.501 171.873C252.501 168.287 252.893 164.086 253.341 162.069C253.789 160.164 254.966 157.027 255.918 155.066C256.927 153.105 259.224 150.08 261.128 148.119C263.705 145.542 265.778 144.141 269.308 142.461C271.941 141.228 275.806 139.828 277.991 139.38Z" fill="#FEFEFE"/>
</g>
<defs>
<clipPath id="clip0_3327_2486">
<path d="M0 119.75C0 53.614 53.614 0 119.75 0H392.25C458.386 0 512 53.614 512 119.75V392.25C512 458.386 458.386 512 392.25 512H119.75C53.614 512 0 458.386 0 392.25V119.75Z" fill="white"/>
</clipPath>
</defs>
</svg>
